<?xml version="1.0" standalone="no"?>
<svg xmlns="http://www.w3.org/2000/svg" viewBox="0 0 93 68" width="93" height="68"><g fill="#5a1f0c" color="#5a1f0c" transform="translate(34.782 0) scale(0.8333334) "><svg width="27.0" height="48.0" x="0.0" y="0.0" viewBox="0 0 27 48"><path fill="currentColor" fill-rule="evenodd" d="M5.428 1.259c.096.227-.703 10.723-.685 15.628.005.89.114 1.784.219 2.669.105.89 1.14 1.668 2.006 1.466.225-.051.519-.443.53-.688.114-2.571.123-5.15.273-7.715.172-3.004.457-6 .702-8.999.082-1.002.73-1.152 1.53-.91.747.224 1.508.464 2.194.827.66.348 1.016.91.912 1.773-.244 2.057-.403 4.122-.572 6.187-.197 2.391-.353 4.785-.56 7.176-.092 1.083-.282 2.156-.39 3.237-.076.753-.603.81-1.114.677-1.216-.32-1.464.274-1.467 1.315-.003 1.922-.115 3.844-.107 5.765.005 1.293.39 1.695 1.678 1.67 1.4-.027 2.804-.175 4.193-.355.294-.04.726-.432.771-.715.311-1.892.515-3.8.797-5.699.081-.549-.024-.847-.605-.948-.93-.158-1.336-.862-1.394-1.687-.14-2.01-.18-4.029-.267-6.044-.05-1.166-.122-2.328-.185-3.49-.09-1.641.608-6.2.718-6.88.143-.873.489-1.711.636-2.585.219-1.248 1.092-2.625 2.158-2.61 2.653.042 5.31.221 7.97.868.768.19 1.005.53 1.04 1.228v.102c-.028 1.613-1.12 18.056-1.51 21.09-.381 2.936-.953 5.848-1.405 8.776-.57 3.683-1.142 7.368-1.635 11.063-.268 2.003-1.658 3.347-3.7 3.511-3.542.285-7.075.722-10.623.94-1.605.099-3.353.343-4.766-.685-.627-.456-1.265-1.295-1.352-2.027C1.082 42.3-1.457 4.422 1.196.316c.943-.72 3.778-.127 4.232.943zM1.708 2c-.178.69-.234 1.417-.289 2.133-.167 2.294.37 24.14.49 26.735.132 2.86.334 5.72.531 8.578.094 1.361.309 2.718.369 4.083.098 2.261 1.047 3.308 3.277 3.325a29.128 29.128 0 0 0 5.28-.429c2.014-.35 4.103-.29 6.159-.39 1.718-.084 2.216-.464 2.613-2.155.234-1.002.424-2.013.599-3.025.549-3.16 3.058-23.44 3.498-27.94.11-1.105.822-8.49.648-10.114-.023-.23-.317-.588-.524-.614-1.371-.19-2.758-.43-4.13-.402-1.122.021-2.448-.288-3.181 1.102-1.107 2.106-1.644 4.365-1.788 6.7-.14 2.25-.106 4.512-.079 6.767.022 1.812.117 3.626.25 5.432.03.789.903.803 1.055.741 0-1.255-.012-2.509.002-3.766.026-2.334.048-4.67.109-7.005.056-2.18.122-4.362.272-6.541.028-.393.397-.927.755-1.105 1.494-.75 3.038-.973 4.632-.182.675.333.795.71.716 1.46-.141 1.333-.264 12.931-.557 15.592-.073.654.254 1.465-.697 1.82-.698.258-2.67.914-2.98.929-.601.03-.87.265-.92.947-.087 1.188-.856 5.157-.891 5.971-.051 1.228-.258 1.443-1.516 1.472-1.775.037-3.558.05-5.323.222-1.746.174-2.624-.327-2.687-2.09-.078-2.293.02-4.595.1-6.89.03-.886-.122-1.316-1.166-1.449-2.504-.32-2.955-.888-2.918-3.428.056-4.089.648-15.203.622-16.679-.005-.269-.338-.668-.605-.766-.832-.304-1.49.057-1.725.96zm12.924 37.068c.056.612-.933 1.268-1.886 1.22-.591-.07-1.244-.255-1.289-1.148.156-1.34 3.075-1.095 3.175-.072zm3.094-31.12c.104 1.865.025 7.02.051 7.725.074 2.081.22 3.373.345 5.453.057.987.454 1.25 1.399.922.636-.22 1.909-.555 1.984-1.279.21-2.04-.009-9.189.006-11.093.013-1.158-.172-2.318-.166-3.477.014-1.724-3.721-2.089-3.62 1.75zm-8.45 2.43c-.22 3.442-.714 6.805-.195 10.035.042 1.248 1.339 1.015 1.681.16.26-.844.15-1.708.219-2.588.325-4.09.613-8.182.877-12.276.104-1.619-2.14-3.071-2.581 4.67z"></path></svg></g><path fill="#0c8045" fill-rule="nonzero" d="M5.16 19.82L5.16 19.82Q3.48 19.82 2.36 19.10Q1.25 18.38 0.67 17.11Q0.10 15.84 0 14.16L0 14.16L2.40 13.51Q2.47 14.54 2.72 15.50Q2.98 16.46 3.55 17.08Q4.13 17.69 5.16 17.69L5.16 17.69Q6.22 17.69 6.76 17.10Q7.30 16.51 7.30 15.41L7.30 15.41Q7.30 14.09 6.70 13.28Q6.10 12.48 5.18 11.66L5.18 11.66L1.92 8.78Q0.96 7.94 0.50 6.95Q0.05 5.95 0.05 4.49L0.05 4.49Q0.05 2.35 1.27 1.18Q2.50 0 4.61 0L4.61 0Q5.76 0 6.64 0.30Q7.51 0.60 8.10 1.22Q8.69 1.85 9.04 2.80Q9.38 3.74 9.50 5.02L9.50 5.02L7.20 5.64Q7.13 4.68 6.91 3.88Q6.70 3.07 6.16 2.58Q5.62 2.09 4.61 2.09L4.61 2.09Q3.60 2.09 3.04 2.63Q2.47 3.17 2.47 4.22L2.47 4.22Q2.47 5.11 2.77 5.69Q3.07 6.26 3.74 6.86L3.74 6.86L7.03 9.74Q8.14 10.70 8.98 12.04Q9.82 13.37 9.82 15.19L9.82 15.19Q9.82 16.63 9.22 17.68Q8.62 18.72 7.57 19.27Q6.53 19.82 5.16 19.82ZM14.35 19.61L11.78 19.61L11.78 0.17L14.35 0.17L14.35 7.18Q15.05 6.50 15.91 6.02Q16.78 5.54 17.83 5.54L17.83 5.54Q18.65 5.54 19.09 5.98Q19.54 6.41 19.72 7.06Q19.90 7.70 19.90 8.38L19.90 8.38L19.90 19.61L17.33 19.61L17.33 9.12Q17.33 8.38 17.11 7.97Q16.90 7.56 16.22 7.56L16.22 7.56Q15.77 7.56 15.28 7.82Q14.78 8.09 14.35 8.47L14.35 8.47L14.35 19.61ZM25.13 19.61L22.56 19.61L22.56 5.74L25.13 5.74L25.13 19.61ZM25.13 3.67L22.56 3.67L22.56 0.98L25.13 0.98L25.13 3.67ZM30.53 19.61L27.96 19.61L27.96 5.74L30.53 5.74L30.53 7.70Q31.30 6.43 32.06 6Q32.83 5.57 33.60 5.57L33.60 5.57Q33.70 5.57 33.78 5.57Q33.86 5.57 34.01 5.59L34.01 5.59L34.01 8.42Q33.72 8.30 33.35 8.22Q32.98 8.14 32.59 8.14L32.59 8.14Q31.99 8.14 31.50 8.41Q31.01 8.69 30.53 9.48L30.53 9.48L30.53 19.61ZM39.41 19.80L39.41 19.80Q37.87 19.80 36.98 19.18Q36.10 18.55 35.72 17.40Q35.35 16.25 35.35 14.69L35.35 14.69L35.35 10.66Q35.35 9.10 35.72 7.94Q36.10 6.79 36.98 6.17Q37.87 5.54 39.41 5.54L39.41 5.54Q40.94 5.54 41.82 6.17Q42.70 6.79 43.07 7.94Q43.44 9.10 43.44 10.66L43.44 10.66L43.44 14.69Q43.44 16.25 43.07 17.40Q42.70 18.55 41.82 19.18Q40.94 19.80 39.41 19.80ZM39.41 17.90L39.41 17.90Q40.15 17.90 40.45 17.47Q40.75 17.04 40.81 16.33Q40.87 15.62 40.87 14.86L40.87 14.86L40.87 10.51Q40.87 9.72 40.81 9.02Q40.75 8.33 40.45 7.88Q40.15 7.44 39.41 7.44L39.41 7.44Q38.66 7.44 38.35 7.88Q38.04 8.33 37.98 9.02Q37.92 9.72 37.92 10.51L37.92 10.51L37.92 14.86Q37.92 15.62 37.98 16.33Q38.04 17.04 38.35 17.47Q38.66 17.90 39.41 17.90ZM48.41 19.58L45.84 19.58L45.84 0.14L48.41 0.14L48.41 11.74L52.15 5.74L54.84 5.74L51.58 11.16L54.74 19.61L52.18 19.61L49.58 12.50L48.41 14.28L48.41 19.58ZM59.90 19.80L59.90 19.80Q58.37 19.80 57.48 19.18Q56.59 18.55 56.22 17.40Q55.85 16.25 55.85 14.69L55.85 14.69L55.85 10.66Q55.85 9.10 56.22 7.94Q56.59 6.79 57.48 6.17Q58.37 5.54 59.90 5.54L59.90 5.54Q61.44 5.54 62.32 6.17Q63.19 6.79 63.56 7.94Q63.94 9.10 63.94 10.66L63.94 10.66L63.94 14.69Q63.94 16.25 63.56 17.40Q63.19 18.55 62.32 19.18Q61.44 19.80 59.90 19.80ZM59.90 17.90L59.90 17.90Q60.65 17.90 60.95 17.47Q61.25 17.04 61.31 16.33Q61.37 15.62 61.37 14.86L61.37 14.86L61.37 10.51Q61.37 9.72 61.31 9.02Q61.25 8.33 60.95 7.88Q60.65 7.44 59.90 7.44L59.90 7.44Q59.16 7.44 58.85 7.88Q58.54 8.33 58.48 9.02Q58.42 9.72 58.42 10.51L58.42 10.51L58.42 14.86Q58.42 15.62 58.48 16.33Q58.54 17.04 58.85 17.47Q59.16 17.90 59.90 17.90ZM68.86 19.61L66.29 19.61L66.29 5.74L68.86 5.74L68.86 7.10Q69.55 6.46 70.39 6Q71.23 5.54 72.24 5.54L72.24 5.54Q73.08 5.54 73.52 5.98Q73.97 6.41 74.15 7.06Q74.33 7.70 74.33 8.38L74.33 8.38L74.33 19.61L71.76 19.61L71.76 9.12Q71.76 8.38 71.54 7.97Q71.33 7.56 70.66 7.56L70.66 7.56Q70.22 7.56 69.76 7.81Q69.29 8.06 68.86 8.42L68.86 8.42L68.86 19.61ZM80.52 19.80L80.52 19.80Q79.44 19.80 78.78 19.39Q78.12 18.98 77.82 18.24Q77.52 17.50 77.52 16.49L77.52 16.49L77.52 7.44L76.06 7.44L76.06 5.74L77.52 5.74L77.52 1.68L80.09 1.68L80.09 5.74L82.32 5.74L82.32 7.44L80.09 7.44L80.09 16.32Q80.09 17.14 80.35 17.48Q80.62 17.83 81.36 17.83L81.36 17.83Q81.55 17.83 81.80 17.81Q82.06 17.78 82.30 17.76L82.30 17.76L82.30 19.66Q81.82 19.73 81.41 19.76Q81 19.80 80.52 19.80ZM88.03 19.80L88.03 19.80Q86.50 19.80 85.61 19.18Q84.72 18.55 84.35 17.40Q83.98 16.25 83.98 14.69L83.98 14.69L83.98 10.66Q83.98 9.10 84.35 7.94Q84.72 6.79 85.61 6.17Q86.50 5.54 88.03 5.54L88.03 5.54Q89.57 5.54 90.44 6.17Q91.32 6.79 91.69 7.94Q92.06 9.10 92.06 10.66L92.06 10.66L92.06 14.69Q92.06 16.25 91.69 17.40Q91.32 18.55 90.44 19.18Q89.57 19.80 88.03 19.80ZM88.03 17.90L88.03 17.90Q88.78 17.90 89.08 17.47Q89.38 17.04 89.44 16.33Q89.50 15.62 89.50 14.86L89.50 14.86L89.50 10.51Q89.50 9.72 89.44 9.02Q89.38 8.33 89.08 7.88Q88.78 7.44 88.03 7.44L88.03 7.44Q87.29 7.44 86.98 7.88Q86.66 8.33 86.60 9.02Q86.54 9.72 86.54 10.51L86.54 10.51L86.54 14.86Q86.54 15.62 86.60 16.33Q86.66 17.04 86.98 17.47Q87.29 17.90 88.03 17.90Z" transform="translate(0, 48)"></path></svg>